<svg width="40px" height="40px" viewBox="0 0 40 40" version="1.1" xmlns="http://www.w3.org/2000/svg">
  <g id="bk" stroke-linecap="round" stroke-linejoin="round" transform="translate(5.000000, 5.000000)" stroke-width="1.5">
    <line x1="15" y1="4.96764706" x2="15" y2="0" id="Shape" stroke="#000000"/>
    <path d="M15,16.7647059 C15,16.7647059 18.8571429,10.1470588 17.5714286,7.5 C17.5714286,7.5 16.7142857,5.29411765 15,5.29411765 C13.2857143,5.29411765 12.4285714,7.5 12.4285714,7.5 C11.1428571,10.1470588 15,16.7647059 15,16.7647059" id="Shape" stroke="#000000" fill="#000000"/>
    <path d="M5.57142857,27.3529412 C10.2857143,30.4411765 18.8571429,30.4411765 23.5714286,27.3529412 L23.5714286,21.1764706 C23.5714286,21.1764706 31.2857143,17.2058824 28.7142857,11.9117647 C25.2857143,6.17647059 17.1428571,8.82352941 15,15.4411765 L15,18.5294118 L15,15.4411765 C12,8.82352941 3.85714286,6.17647059 1.28571429,11.9117647 C-1.28571429,17.2058824 5.57142857,20.7352941 5.57142857,20.7352941 L5.57142857,27.3529412 Z" id="Shape" stroke="#000000" fill="#000000"/>
    <line x1="12.8571429" y1="1.76470588" x2="17.1428571" y2="1.76470588" id="Shape" stroke="#000000"/>
    <path d="M23.1428571,20.7352941 C23.1428571,20.7352941 30.4285714,17.2058824 28.3114286,12.2205882 C24.9857143,7.05882353 17.1428571,10.5882353 15,16.3235294 L15.0085714,18.1764706 L15,16.3235294 C12.8571429,10.5882353 4.20514286,7.05882353 1.71171429,12.2205882 C-0.428571429,17.2058824 5.87142857,20.1617647 5.87142857,20.1617647" id="Shape" stroke="#FFFFFF"/>
    <path d="M5.57142857,21.1764706 C10.2857143,18.5294118 18.8571429,18.5294118 23.5714286,21.1764706 M5.57142857,24.2647059 C10.2857143,21.6176471 18.8571429,21.6176471 23.5714286,24.2647059 M5.57142857,27.3529412 C10.2857143,24.7058824 18.8571429,24.7058824 23.5714286,27.3529412" id="Shape" stroke="#FFFFFF"/>
  </g>
</svg>