<svg width="40px" height="40px" viewBox="0 0 40 40" version="1.1" xmlns="http://www.w3.org/2000/svg">
  <g id="wk" stroke-linecap="round" stroke-linejoin="round" transform="translate(6.000000, 6.000000)" stroke="#000000">
    <path d="M13.5757576,2.625 C22.4848485,3.5 27.5757576,9.625 27.1515152,28 L7.63636364,28 C7.63636364,20.125 16.1212121,22.3125 14.4242424,9.625" id="Shape" stroke-width="1.5" fill="#FFFFFF"/>
    <path d="M15.2727273,9.625 C15.5951515,12.17125 10.5636364,16.07375 8.48484848,17.5 C5.93939394,19.25 6.09212121,21.2975 4.24242424,21 C3.35830303,20.1775 5.43878788,18.34 4.24242424,18.375 C3.39393939,18.375 4.40363636,19.45125 3.39393939,20.125 C2.54545455,20.125 -0.00254545455,21 -1.90580876e-06,16.625 C-1.90580876e-06,14.875 5.09090909,6.125 5.09090909,6.125 C5.09090909,6.125 6.69454545,4.4625 6.78787879,3.0625 C6.16848485,2.19275 6.36363636,1.3125 6.36363636,0.4375 C7.21212121,-0.4375 8.90909091,2.625 8.90909091,2.625 L10.6060606,2.625 C10.6060606,2.625 11.2678788,0.882 12.7272727,0 C13.5757576,0 13.5757576,2.625 13.5757576,2.625" id="Shape" stroke-width="1.5" fill="#FFFFFF"/>
    <path d="M2.96969697,16.1875 C2.96969697,16.4291246 2.77975717,16.625 2.54545455,16.625 C2.31115192,16.625 2.12121212,16.4291246 2.12121212,16.1875 C2.12121212,15.9458754 2.31115192,15.75 2.54545455,15.75 C2.77975717,15.75 2.96969697,15.9458754 2.96969697,16.1875 Z" id="Shape" stroke-width="1.5" fill="#000000"/>
    <path d="M7.6363543,7.4375 C7.6363543,8.16235779 7.44641868,8.74997112 7.21212121,8.74997112 C6.97782375,8.74997112 6.78788812,8.16235779 6.78788812,7.4375 C6.78788812,6.71264221 6.97782375,6.12502888 7.21212121,6.12502888 C7.44641868,6.12502888 7.6363543,6.71264221 7.6363543,7.4375 L7.6363543,7.4375 Z" id="Shape" stroke-width="1.499967" fill="#000000" transform="translate(7.212121, 7.437500) rotate(30.000728) translate(-7.212121, -7.437500) "/>
  </g>
</svg>