<svg width="40px" height="40px" viewBox="0 0 40 40" version="1.1" xmlns="http://www.w3.org/2000/svg">
  <g id="bb" stroke-linecap="round" stroke-linejoin="round" transform="translate(6.000000, 5.000000)" stroke-width="1.5">
    <g id="Group" fill="#000000" stroke="#000000">
        <path d="M2.54545455,27.3529412 C5.42181818,26.4970588 11.1236364,27.7323529 14,25.5882353 C16.8763636,27.7323529 22.5781818,26.4970588 25.4545455,27.3529412 C25.4545455,27.3529412 26.8545455,27.8294118 28,29.1176471 C27.4230303,29.9735294 26.6,29.9911765 25.4545455,29.5588235 C22.5781818,28.7029412 16.8763636,29.9647059 14,28.6764706 C11.1236364,29.9647059 5.42181818,28.7029412 2.54545455,29.5588235 C1.39660606,29.9911765 0.574424242,29.9735294 0,29.1176471 C1.14884848,27.4058824 2.54545455,27.3529412 2.54545455,27.3529412 Z" id="Shape"/>
        <path d="M7.63636364,23.8235294 C9.75757576,26.0294118 18.2424242,26.0294118 20.3636364,23.8235294 C20.7878788,22.5 20.3636364,22.0588235 20.3636364,22.0588235 C20.3636364,19.8529412 18.2424242,18.5294118 18.2424242,18.5294118 C22.9090909,17.2058824 23.3333333,8.38235294 14,4.85294118 C4.66666667,8.38235294 5.09090909,17.2058824 9.75757576,18.5294118 C9.75757576,18.5294118 7.63636364,19.8529412 7.63636364,22.0588235 C7.63636364,22.0588235 7.21212121,22.5 7.63636364,23.8235294 Z" id="Shape"/>
        <path d="M16.1212121,2.64705882 C16.1212121,3.86533401 15.1715131,4.85294118 14,4.85294118 C12.8284869,4.85294118 11.8787879,3.86533401 11.8787879,2.64705882 C11.8787879,1.42878364 12.8284869,0.441176471 14,0.441176471 C15.1715131,0.441176471 16.1212121,1.42878364 16.1212121,2.64705882 Z" id="Shape"/>
    </g>
    <path d="M9.75757576,18.5294118 L18.2424242,18.5294118 M7.63636364,22.0588235 L20.3636364,22.0588235 M14,9.26470588 L14,13.6764706 M11.8787879,11.4705882 L16.1212121,11.4705882" id="Shape" stroke="#FFFFFF"/>
  </g>
</svg>