<svg width="40px" height="40px" viewBox="0 0 40 40" version="1.1" xmlns="http://www.w3.org/2000/svg">
  <g id="bn" stroke-linecap="round" stroke-linejoin="round" transform="translate(6.000000, 6.000000)">
    <path d="M13.5757576,2.63636364 C22.4848485,3.51515152 27.5757576,9.66666667 27.1515152,28.1212121 L7.63636364,28.1212121 C7.63636364,20.2121212 16.1212121,22.4090909 14.4242424,9.66666667" id="Shape" stroke="#000000" stroke-width="1.5" fill="#000000"/>
    <path d="M15.2727273,9.66666667 C15.5951515,12.2239394 10.5636364,16.1433333 8.48484848,17.5757576 C5.93939394,19.3333333 6.09212121,21.389697 4.24242424,21.0909091 C3.35830303,20.2648485 5.43878788,18.4193939 4.24242424,18.4545455 C3.39393939,18.4545455 4.40363636,19.5354545 3.39393939,20.2121212 C2.54545455,20.2121212 -0.00254545455,21.0909091 -1.90580876e-06,16.6969697 C-1.90580876e-06,14.9393939 5.09090909,6.15151515 5.09090909,6.15151515 C5.09090909,6.15151515 6.69454545,4.48181818 6.78787879,3.07575758 C6.16848485,2.20224242 6.36363636,1.31818182 6.36363636,0.439393939 C7.21212121,-0.439393939 8.90909091,2.63636364 8.90909091,2.63636364 L10.6060606,2.63636364 C10.6060606,2.63636364 11.2678788,0.885818182 12.7272727,0 C13.5757576,0 13.5757576,2.63636364 13.5757576,2.63636364" id="Shape" stroke="#000000" stroke-width="1.5" fill="#000000"/>
    <path d="M2.96969697,16.2575758 C2.96969697,16.5002463 2.77975717,16.6969697 2.54545455,16.6969697 C2.31115192,16.6969697 2.12121212,16.5002463 2.12121212,16.2575758 C2.12121212,16.0149052 2.31115192,15.8181818 2.54545455,15.8181818 C2.77975717,15.8181818 2.96969697,16.0149052 2.96969697,16.2575758 Z" id="Shape" stroke="#FFFFFF" stroke-width="1.5" fill="#FFFFFF"/>
    <path d="M7.6363543,7.46969697 C7.6363543,8.19769267 7.44641868,8.78784979 7.21212121,8.78784979 C6.97782375,8.78784979 6.78788812,8.19769267 6.78788812,7.46969697 C6.78788812,6.74170127 6.97782375,6.15154415 7.21212121,6.15154415 C7.44641868,6.15154415 7.6363543,6.74170127 7.6363543,7.46969697 L7.6363543,7.46969697 Z" id="Shape" stroke="#FFFFFF" stroke-width="1.499967" fill="#FFFFFF" transform="translate(7.212121, 7.469697) rotate(30.000728) translate(-7.212121, -7.469697) "/>
    <path d="M15.7393939,2.98787879 L15.3575758,4.26212121 L15.7818182,4.39393939 C18.4545455,5.27272727 20.5757576,6.58212121 22.4848485,10.3257576 C24.3939394,14.0693939 25.2424242,19.3860606 24.8181818,28.1212121 L24.7757576,28.5606061 L26.6848485,28.5606061 L26.7272727,28.1212121 C27.1515152,19.2806061 25.9806061,13.3136364 23.969697,9.36787879 C21.9587879,5.42212121 19.0569697,3.53272727 16.1721212,3.07575758 L15.7393939,2.98787879 Z" id="Shape" fill="#FFFFFF"/>
  </g>
</svg>