<svg width="40px" height="40px" viewBox="0 0 40 40" version="1.1" xmlns="http://www.w3.org/2000/svg">
  <g id="bq" stroke-linecap="round" stroke-linejoin="round" transform="translate(3.000000, 4.000000)">
              <g id="Group" fill="#000000">
                  <ellipse id="Oval" cx="2.61538462" cy="6.22222222" rx="2.3974359" ry="2.44444444"/>
                  <ellipse id="Oval" cx="9.58974359" cy="3.55555556" rx="2.3974359" ry="2.44444444"/>
                  <ellipse id="Oval" cx="17" cy="2.66666667" rx="2.3974359" ry="2.44444444"/>
                  <ellipse id="Oval" cx="24.4102564" cy="3.55555556" rx="2.3974359" ry="2.44444444"/>
                  <ellipse id="Oval" cx="31.3846154" cy="6.22222222" rx="2.3974359" ry="2.44444444"/>
              </g>
              <path d="M5.23076923,18.6666667 C12.6410256,17.3333333 23.5384615,17.3333333 28.7692308,18.6666667 L30.9487179,7.55555556 L24.4102564,17.7777778 L24.1487179,5.24444444 L19.6153846,17.3333333 L17,4.44444444 L14.3846154,17.3333333 L9.85128205,5.24444444 L9.58974359,17.7777778 L3.05128205,7.55555556 L5.23076923,18.6666667 Z" id="crown" stroke="#000000" stroke-width="1.5" fill="#000000"/>
              <path d="M5.23076923,18.6666667 C5.23076923,20.4444444 6.53846154,20.4444444 7.41025641,22.2222222 C8.28205128,23.5555556 8.28205128,23.1111111 7.84615385,25.3333333 C6.53846154,26.2222222 6.53846154,27.5555556 6.53846154,27.5555556 C5.23076923,28.8888889 6.97435897,29.7777778 6.97435897,29.7777778 C12.6410256,30.6666667 21.3589744,30.6666667 27.025641,29.7777778 C27.025641,29.7777778 28.3333333,28.8888889 27.025641,27.5555556 C27.025641,27.5555556 27.4615385,26.2222222 26.1538462,25.3333333 C25.7179487,23.1111111 25.7179487,23.5555556 26.5897436,22.2222222 C27.4615385,20.4444444 28.7692308,20.4444444 28.7692308,18.6666667 C21.3589744,17.3333333 12.6410256,17.3333333 5.23076923,18.6666667 Z" id="Shape" stroke="#000000" stroke-width="1.5" fill="#000000"/>
              <path d="M6.97435897,29.7777778 C13.4672777,32.080866 20.5327223,32.080866 27.025641,29.7777778" id="Shape" stroke="#000000" stroke-width="1.5"/>
              <path d="M6.97435897,21.3333333 C13.4672777,19.0302452 20.5327223,19.0302452 27.025641,21.3333333" id="Shape" stroke="#FFFFFF" stroke-width="1.5"/>
              <line x1="8.28205128" y1="23.5555556" x2="25.7179487" y2="23.5555556" id="Shape" stroke="#FFFFFF" stroke-width="1.5"/>
              <path d="M7.41025641,26.2222222 C13.6372326,28.3241535 20.3627674,28.3241535 26.5897436,26.2222222" id="Shape" stroke="#FFFFFF" stroke-width="1.5"/>
              <path d="M6.53846154,28.8888889 C13.2948481,31.4031829 20.7051519,31.4031829 27.4615385,28.8888889" id="Shape" stroke="#FFFFFF" stroke-width="1.5"/>
  </g>
</svg>