<svg width="40px" height="40px" viewBox="0 0 40 40" version="1.1" xmlns="http://www.w3.org/2000/svg">
  <g id="br" stroke-linecap="round" stroke-linejoin="round" transform="translate(9.000000, 8.000000)">
    <polygon id="Shape" stroke="#000000" stroke-width="1.5" fill="#000000" points="0 26 22 26 22 23.4 0 23.4"/>
    <polygon id="Shape" stroke="#000000" stroke-width="1.5" fill="#000000" points="2.85185185 19.9333333 4.07407407 17.7666667 17.9259259 17.7666667 19.1481481 19.9333333"/>
    <polygon id="Shape" stroke="#000000" stroke-width="1.5" fill="#000000" points="2.44444444 23.4 2.44444444 19.9333333 19.5555556 19.9333333 19.5555556 23.4"/>
    <polygon id="Shape" stroke="#000000" stroke-width="1.5" fill="#000000" points="4.07407407 17.7666667 4.07407407 6.5 17.9259259 6.5 17.9259259 17.7666667"/>
    <polygon id="Shape" stroke="#000000" stroke-width="1.5" fill="#000000" points="4.07407407 6.5 1.62962963 4.33333333 20.3703704 4.33333333 17.9259259 6.5"/>
    <polygon id="Shape" stroke="#000000" stroke-width="1.5" fill="#000000" points="1.62962963 4.33333333 1.62962963 0 4.88888889 0 4.88888889 1.73333333 8.96296296 1.73333333 8.96296296 0 13.037037 0 13.037037 1.73333333 17.1111111 1.73333333 17.1111111 0 20.3703704 0 20.3703704 4.33333333"/>
    <polyline id="Shape" stroke="#FFFFFF" points="2.44444444 22.9666667 19.5555556 22.9666667 19.5555556 22.9666667"/>
    <line x1="3.25925926" y1="19.5" x2="18.7407407" y2="19.5" id="Shape" stroke="#FFFFFF"/>
    <line x1="4.07407407" y1="17.7666667" x2="17.9259259" y2="17.7666667" id="Shape" stroke="#FFFFFF"/>
    <line x1="4.07407407" y1="6.5" x2="17.9259259" y2="6.5" id="Shape" stroke="#FFFFFF"/>
    <line x1="1.62962963" y1="4.33333333" x2="20.3703704" y2="4.33333333" id="Shape" stroke="#FFFFFF"/>
  </g>
</svg>