<svg width="40px" height="40px" viewBox="0 0 40 40" version="1.1" xmlns="http://www.w3.org/2000/svg">
  <g id="wq" stroke-linecap="round" stroke-linejoin="round" transform="translate(4.000000, 5.000000)" stroke="#000000" stroke-width="1.5">
    <path d="M3.45945946,6.2 C3.45945946,7.17833299 2.68503308,7.97142857 1.72972973,7.97142857 C0.774426379,7.97142857 0,7.17833299 0,6.2 C0,5.22166701 0.774426379,4.42857143 1.72972973,4.42857143 C2.68503308,4.42857143 3.45945946,5.22166701 3.45945946,6.2 Z" id="Shape" fill="#FFFFFF"/>
    <path d="M17.7297297,2.21428571 C17.7297297,3.1926187 16.9553034,3.98571429 16,3.98571429 C15.0446966,3.98571429 14.2702703,3.1926187 14.2702703,2.21428571 C14.2702703,1.23595273 15.0446966,0.442857143 16,0.442857143 C16.9553034,0.442857143 17.7297297,1.23595273 17.7297297,2.21428571 Z" id="Shape" fill="#FFFFFF"/>
    <path d="M32,6.2 C32,7.17833299 31.2255736,7.97142857 30.2702703,7.97142857 C29.3149669,7.97142857 28.5405405,7.17833299 28.5405405,6.2 C28.5405405,5.22166701 29.3149669,4.42857143 30.2702703,4.42857143 C31.2255736,4.42857143 32,5.22166701 32,6.2 Z" id="Shape" fill="#FFFFFF"/>
    <path d="M10.3783784,3.1 C10.3783784,4.07833299 9.603952,4.87142857 8.64864865,4.87142857 C7.6933453,4.87142857 6.91891892,4.07833299 6.91891892,3.1 C6.91891892,2.12166701 7.6933453,1.32857143 8.64864865,1.32857143 C9.603952,1.32857143 10.3783784,2.12166701 10.3783784,3.1 Z" id="Shape" fill="#FFFFFF"/>
    <path d="M25.0810811,3.54285714 C25.0810811,4.52119013 24.3066547,5.31428571 23.3513514,5.31428571 C22.396048,5.31428571 21.6216216,4.52119013 21.6216216,3.54285714 C21.6216216,2.56452416 22.396048,1.77142857 23.3513514,1.77142857 C24.3066547,1.77142857 25.0810811,2.56452416 25.0810811,3.54285714 Z" id="Shape" fill="#FFFFFF"/>
    <path d="M4.32432432,18.6 C11.6756757,17.2714286 22.4864865,17.2714286 27.6756757,18.6 L29.4054054,7.97142857 L23.3513514,17.7142857 L23.3513514,5.31428571 L18.5945946,17.2714286 L16,3.98571429 L13.4054054,17.2714286 L8.64864865,4.87142857 L8.64864865,17.7142857 L2.59459459,7.97142857 L4.32432432,18.6 Z" id="Shape" fill="#FFFFFF"/>
    <path d="M4.32432432,18.6 C4.32432432,20.3714286 5.62162162,20.3714286 6.48648649,22.1428571 C7.35135135,23.4714286 7.35135135,23.0285714 6.91891892,25.2428571 C5.62162162,26.1285714 5.62162162,27.4571429 5.62162162,27.4571429 C4.32432432,28.7857143 6.05405405,29.6714286 6.05405405,29.6714286 C11.6756757,30.5571429 20.3243243,30.5571429 25.9459459,29.6714286 C25.9459459,29.6714286 27.2432432,28.7857143 25.9459459,27.4571429 C25.9459459,27.4571429 26.3783784,26.1285714 25.0810811,25.2428571 C24.6486486,23.0285714 24.6486486,23.4714286 25.5135135,22.1428571 C26.3783784,20.3714286 27.6756757,20.3714286 27.6756757,18.6 C20.3243243,17.2714286 11.6756757,17.2714286 4.32432432,18.6 Z" id="Shape" fill="#FFFFFF"/>
    <path d="M6.48648649,22.1428571 C9.51351351,21.2571429 22.4864865,21.2571429 25.5135135,22.1428571" id="Shape"/>
    <path d="M6.91891892,25.2428571 C12.1081081,24.3571429 19.8918919,24.3571429 25.0810811,25.2428571" id="Shape"/>
  </g>
</svg>